<svg viewBox="0 0 25 25" fill="none" xmlns="http://www.w3.org/2000/svg">
<path d="M23.9583 19.1667H22.5V12.5C22.5 11.5813 21.7521 10.8334 20.8333 10.8334H18.75C17.8313 10.8334 17.0833 11.5813 17.0833 12.5V19.1667H15.2083V6.25004C15.2083 5.33129 14.4604 4.58337 13.5417 4.58337H11.4583C10.5396 4.58337 9.79167 5.33129 9.79167 6.25004V19.1667H7.91667V11.4584C7.91667 10.5396 7.16875 9.79171 6.25 9.79171H4.16667C3.24792 9.79171 2.5 10.5396 2.5 11.4584V19.1667H1.04167C0.695835 19.1667 0.416668 19.4469 0.416668 19.7917C0.416668 20.1365 0.696876 20.4167 1.04167 20.4167H23.9583C24.3042 20.4167 24.5833 20.1365 24.5833 19.7917C24.5833 19.4469 24.3042 19.1667 23.9583 19.1667ZM6.66667 19.1667H3.75V11.4584C3.75 11.2282 3.93646 11.0417 4.16667 11.0417H6.25C6.48021 11.0417 6.66667 11.2282 6.66667 11.4584V19.1667ZM13.9583 19.1667H11.0417V6.25004C11.0417 6.01983 11.2281 5.83337 11.4583 5.83337H13.5417C13.7719 5.83337 13.9583 6.01983 13.9583 6.25004V19.1667ZM21.25 19.1667H18.3333V12.5C18.3333 12.2698 18.5198 12.0834 18.75 12.0834H20.8333C21.0635 12.0834 21.25 12.2698 21.25 12.5V19.1667Z" fill="currentColor" stroke="currentColor" stroke-width="0.1"/>
</svg>
