<svg viewBox="0 0 20 17" fill="none" xmlns="http://www.w3.org/2000/svg">
<path d="M8.82609 12.0526C8.82609 14.2237 7.06522 16 4.91304 16C2.76087 16 1 14.2237 1 12.0526C1 9.88158 2.72174 8.10526 4.87391 8.10526" stroke="currentColor" stroke-miterlimit="10" stroke-linecap="round" stroke-linejoin="round"/>
<path d="M15.0869 16C17.248 16 18.9999 14.2327 18.9999 12.0526C18.9999 9.87256 17.248 8.10526 15.0869 8.10526C12.9258 8.10526 11.1738 9.87256 11.1738 12.0526C11.1738 14.2327 12.9258 16 15.0869 16Z" stroke="currentColor" stroke-miterlimit="10" stroke-linecap="round" stroke-linejoin="round"/>
<path d="M4.91309 12.0526L12.387 5.10526" stroke="currentColor" stroke-miterlimit="10" stroke-linecap="round" stroke-linejoin="round"/>
<path d="M15.0866 12.0526L10.7823 1H7.65186" stroke="currentColor" stroke-miterlimit="10" stroke-linecap="round" stroke-linejoin="round"/>
<path d="M7.37818 9.76316L4.52165 4.1579H2.17383" stroke="currentColor" stroke-miterlimit="10" stroke-linecap="round" stroke-linejoin="round"/>
</svg>
