<svg viewBox="0 0 15 20" fill="none" xmlns="http://www.w3.org/2000/svg">
<path d="M1 1H14V15.8696C14 17.5913 12.6629 19 11.0286 19H3.97143C2.33714 19 1 17.5913 1 15.8696V1Z" stroke="currentColor" stroke-width="1.2" stroke-miterlimit="10"/>
<path d="M1 4.91309H14" stroke="currentColor" stroke-width="1.2" stroke-miterlimit="10"/>
<path d="M4.1566 9.21726C4.66943 9.21726 5.08517 8.77928 5.08517 8.239C5.08517 7.69872 4.66943 7.26074 4.1566 7.26074C3.64376 7.26074 3.22803 7.69872 3.22803 8.239C3.22803 8.77928 3.64376 9.21726 4.1566 9.21726Z" fill="currentColor"/>
<path d="M7.49937 9.21726C8.01221 9.21726 8.42794 8.77928 8.42794 8.239C8.42794 7.69872 8.01221 7.26074 7.49937 7.26074C6.98654 7.26074 6.5708 7.69872 6.5708 8.239C6.5708 8.77928 6.98654 9.21726 7.49937 9.21726Z" fill="currentColor"/>
<path d="M10.8426 9.21726C11.3555 9.21726 11.7712 8.77928 11.7712 8.239C11.7712 7.69872 11.3555 7.26074 10.8426 7.26074C10.3298 7.26074 9.91406 7.69872 9.91406 8.239C9.91406 8.77928 10.3298 9.21726 10.8426 9.21726Z" fill="currentColor"/>
<path d="M4.1566 12.7391C4.66943 12.7391 5.08517 12.3011 5.08517 11.7609C5.08517 11.2206 4.66943 10.7826 4.1566 10.7826C3.64376 10.7826 3.22803 11.2206 3.22803 11.7609C3.22803 12.3011 3.64376 12.7391 4.1566 12.7391Z" fill="currentColor"/>
<path d="M7.49937 12.7391C8.01221 12.7391 8.42794 12.3011 8.42794 11.7609C8.42794 11.2206 8.01221 10.7826 7.49937 10.7826C6.98654 10.7826 6.5708 11.2206 6.5708 11.7609C6.5708 12.3011 6.98654 12.7391 7.49937 12.7391Z" fill="currentColor"/>
<path d="M10.8426 12.7391C11.3555 12.7391 11.7712 12.3011 11.7712 11.7609C11.7712 11.2206 11.3555 10.7826 10.8426 10.7826C10.3298 10.7826 9.91406 11.2206 9.91406 11.7609C9.91406 12.3011 10.3298 12.7391 10.8426 12.7391Z" fill="currentColor"/>
<path d="M4.1566 16.2608C4.66943 16.2608 5.08517 15.8229 5.08517 15.2826C5.08517 14.7423 4.66943 14.3043 4.1566 14.3043C3.64376 14.3043 3.22803 14.7423 3.22803 15.2826C3.22803 15.8229 3.64376 16.2608 4.1566 16.2608Z" fill="currentColor"/>
<path d="M7.49937 16.2608C8.01221 16.2608 8.42794 15.8229 8.42794 15.2826C8.42794 14.7423 8.01221 14.3043 7.49937 14.3043C6.98654 14.3043 6.5708 14.7423 6.5708 15.2826C6.5708 15.8229 6.98654 16.2608 7.49937 16.2608Z" fill="currentColor"/>
<path d="M10.8426 16.2608C11.3555 16.2608 11.7712 15.8229 11.7712 15.2826C11.7712 14.7423 11.3555 14.3043 10.8426 14.3043C10.3298 14.3043 9.91406 14.7423 9.91406 15.2826C9.91406 15.8229 10.3298 16.2608 10.8426 16.2608Z" fill="currentColor"/>
</svg>
