<svg xmlns="http://www.w3.org/2000/svg"><symbol fill="none" id="bar-chart" viewBox="0 0 25 25"><title>bar-chart</title><path d="M23.958 19.167H22.5V12.5a1.67 1.67 0 00-1.667-1.667H18.75a1.67 1.67 0 00-1.667 1.667v6.667h-1.875V6.25c0-.919-.748-1.667-1.666-1.667h-2.084c-.918 0-1.666.748-1.666 1.667v12.917H7.917v-7.709c0-.918-.748-1.666-1.667-1.666H4.167c-.92 0-1.667.748-1.667 1.666v7.709H1.042a.625.625 0 100 1.25h22.916a.625.625 0 100-1.25zm-17.291 0H3.75v-7.709c0-.23.186-.416.417-.416H6.25c.23 0 .417.186.417.416v7.709zm7.291 0h-2.916V6.25c0-.23.186-.417.416-.417h2.084c.23 0 .416.187.416.417v12.917zm7.292 0h-2.917V12.5c0-.23.187-.417.417-.417h2.083c.23 0 .417.187.417.417v6.667z" fill="currentColor" stroke="currentColor" stroke-width=".1"/></symbol><symbol fill="none" id="calculator" viewBox="0 0 15 20"><title>calculator</title><path d="M1 1h13v14.87c0 1.72-1.337 3.13-2.971 3.13H3.97C2.337 19 1 17.591 1 15.87V1zm0 3.913h13" stroke="currentColor" stroke-width="1.2" stroke-miterlimit="10"/><path d="M4.157 9.217c.512 0 .928-.438.928-.978s-.416-.978-.928-.978c-.513 0-.929.438-.929.978s.416.978.929.978zm3.343 0c.512 0 .928-.438.928-.978s-.416-.978-.929-.978c-.512 0-.928.438-.928.978s.416.978.928.978zm3.343 0c.512 0 .928-.438.928-.978s-.416-.978-.928-.978c-.513 0-.929.438-.929.978s.416.978.929.978zM4.157 12.74c.512 0 .928-.439.928-.98 0-.54-.416-.977-.928-.977-.513 0-.929.438-.929.978s.416.978.929.978zm3.343 0c.512 0 .928-.439.928-.98 0-.54-.416-.977-.929-.977-.512 0-.928.438-.928.978s.416.978.928.978zm3.343 0c.512 0 .928-.439.928-.98 0-.54-.416-.977-.928-.977-.513 0-.929.438-.929.978s.416.978.929.978zm-6.686 3.52c.512 0 .928-.437.928-.977s-.416-.979-.928-.979c-.513 0-.929.438-.929.979 0 .54.416.978.929.978zm3.343 0c.512 0 .928-.437.928-.977s-.416-.979-.929-.979c-.512 0-.928.438-.928.979 0 .54.416.978.928.978zm3.343 0c.512 0 .928-.437.928-.977s-.416-.979-.928-.979c-.513 0-.929.438-.929.979 0 .54.416.978.929.978z" fill="currentColor"/></symbol></svg>